<?xml version="1.0" encoding="utf-8"?>
<!-- Generator: Adobe Illustrator 24.1.2, SVG Export Plug-In . SVG Version: 6.00 Build 0)  -->
<svg version="1.1" xmlns="http://www.w3.org/2000/svg" xmlns:xlink="http://www.w3.org/1999/xlink" x="0px" y="0px"
	 viewBox="0 0 256 72" style="enable-background:new 0 0 256 72;" xml:space="preserve">
<style type="text/css">
	.st0{fill:#E3BFDA;}
	.st1{fill:#010101;}
	.st2{fill:#73346A;}
	.st3{fill:#843668;}
	.st4{fill:#030303;}
	.st5{fill:#63326B;}
	.st6{fill:#7A3569;}
	.st7{fill:#7F3569;}
	.st8{fill:#883768;}
	.st9{fill:#8E3767;}
	.st10{fill:#6E336B;}
	.st11{fill:#5D326C;}
	.st12{fill:#933967;}
	.st13{fill:#69326B;}
	.st14{fill:#9A3A66;}
	.st15{fill:#58316C;}
	.st16{fill:#050505;}
	.st17{fill:#53316C;}
	.st18{fill:#4C306D;}
	.st19{fill:#A03965;}
	.st20{fill:#46306D;}
	.st21{fill:#61326B;}
	.st22{fill:#8A3767;}
	.st23{fill:#5A316C;}
	.st24{fill:#67326B;}
	.st25{fill:#813669;}
	.st26{fill:#74346A;}
	.st27{fill:#893768;}
	.st28{fill:#A03A65;}
	.st29{fill:#52316C;}
	.st30{fill:#6D336A;}
	.st31{fill:#4B306D;}
	.st32{fill:#3F306D;}
	.st33{fill:#7B3569;}
	.st34{fill:#5C316C;}
	.st35{fill:#6C336B;}
	.st36{fill:#813668;}
	.st37{fill:#5D316C;}
	.st38{fill:#943967;}
	.st39{fill:#8F3767;}
	.st40{fill:#A33B65;}
	.st41{fill:#6F366C;}
	.st42{fill:#953967;}
	.st43{fill:#3A316E;}
	.st44{fill:#9B3A66;}
	.st45{fill:#7C3569;}
	.st46{fill:#9B3966;}
	.st47{fill:#45306D;}
	.st48{fill:#8C3767;}
	.st49{fill:#090909;}
	.st50{fill:#40306D;}
	.st51{fill:#43306D;}
	.st52{fill:#A54A72;}
	.st53{fill:#39306D;}
	.st54{fill:#853668;}
	.st55{fill:#68366D;}
	.st56{fill:#3A306D;}
	.st57{fill:#3B306D;}
	.st58{fill:#4B4078;}
</style>
<g id="Layer_2">
	<rect x="-13" y="-6.4" class="st0" width="277" height="96"/>
</g>
<g id="Layer_1">
	<g>
		<path class="st1" d="M187.6,34.7c-0.8-6-6.3-11-12.4-11.1c-2.6-0.1-5.2,0-7.8,0c-0.6,0-0.8,0.1-0.8,0.8c0,4.2,0,8.3,0,12.4
			c0,4.1,0,8.2,0,12.3c0,0.7,0.1,1,0.9,1c2.2-0.1,4.5,0,6.7,0c1,0,2-0.1,3-0.3C184.3,48,188.5,41.9,187.6,34.7z M176.5,48.7
			c-2,0.3-4,0.1-6,0.2c-0.7,0-1.4,0-2.1,0c-0.5,0-0.6-0.2-0.6-0.6c0-3.8,0-7.7,0-11.5c0-3.8,0-7.6,0-11.4c0-0.6,0.1-0.7,0.7-0.7
			c2.4,0,4.8,0,7.2,0.1c5.7,0.3,10.7,5.4,11,11.1C187,42.3,182.8,47.5,176.5,48.7z"/>
		<path d="M198.3,32.5c-3.6,0.8-6.5,3.8-6.9,7.3c-0.5,3.9,1.4,7.5,4.8,9.2c3.4,1.7,7.4,1,10.1-1.7c-0.4-0.7-0.7-0.8-1.4-0.2
			c-2.4,1.9-5,2.3-7.8,1.1c-2.8-1.2-4.3-3.4-4.7-6.5c0.3,0,0.5,0,0.7,0c5,0,10.1,0,15.1,0c0.5,0,0.7-0.1,0.7-0.7
			C209,35.5,203.7,31.3,198.3,32.5z M207,40.6c-2.3,0-4.6,0-6.9,0c-2.3,0-4.7,0-7,0c-0.5,0-0.7-0.1-0.6-0.7c0.7-3.7,3.9-6.5,7.6-6.5
			c3.7,0,6.9,2.7,7.6,6.4C207.8,40.4,207.7,40.6,207,40.6z"/>
		<path d="M64.1,49.9c-1.1,0-2.3,0-3.4,0c-0.4,0-0.7,0-0.7-0.5c0-0.5,0.2-0.6,0.7-0.6c2,0,4.1,0,6.1,0c4.1,0,6.9-3.9,5.6-7.8
			c-0.5-1.4-1.5-2.3-2.9-2.9c-1.3-0.6-2.8-0.9-4.1-1.4c-0.4-0.1-0.7-0.3-1.1-0.4c-3.3-1.3-4.7-3.7-4.2-7.3c0.5-3,3.2-5.5,6.3-5.6
			c2.2-0.1,4.5,0,6.7,0c0.4,0,0.6,0,0.6,0.5c0,0.5-0.1,0.6-0.6,0.6c-2.1,0-4.1,0-6.2,0c-4.1,0.1-6.8,3.9-5.5,7.7
			c0.5,1.5,1.6,2.3,2.9,2.9c1.3,0.6,2.7,0.9,4.1,1.3c0.4,0.1,0.7,0.3,1.1,0.4c3.4,1.3,4.8,3.8,4.2,7.3c-0.5,3.1-3.2,5.5-6.4,5.6
			C66.2,49.9,65.2,49.9,64.1,49.9C64.1,49.9,64.1,49.9,64.1,49.9z"/>
		<path d="M221.1,32.4c-4.9,0-8.8,3.9-8.8,8.8c0,4.8,4,8.7,8.8,8.7c4.9,0,9.2-4.3,9.2-9.3C230.3,35.9,225.9,32.4,221.1,32.4z
			 M221,48.8c-4.3-0.1-7.7-3.7-7.6-7.8c0.1-4.2,3.7-7.6,7.9-7.5c4.3,0.1,7.7,3.7,7.6,7.8C228.7,45.5,225.1,49,221,48.8z"/>
		<path class="st1" d="M237.5,36.9c1.4-2.2,2-2.9,4.6-3.9c5.8-2.2,12,2,12,8.2c0,2.7,0,5.4,0,8.1c0,0.3,0.1,0.7-0.5,0.7
			c-0.6,0-0.6-0.3-0.6-0.7c0-2.9,0.1-5.8-0.1-8.6c-0.2-3.9-3.4-6.8-7.4-7.1c-3.5-0.2-7.1,2.7-7.8,6.3c-0.1,0.6-0.2,1.2-0.2,1.8
			c0,2.6,0,5.2,0,7.7c0,0.3,0.1,0.6-0.5,0.6c-0.4,0-0.6-0.1-0.6-0.6c0-5.4,0-10.9,0-16.3c0-0.4,0.1-0.6,0.6-0.6
			c0.5,0,0.5,0.2,0.5,0.6C237.4,34.2,237.5,35.4,237.5,36.9z"/>
		<path class="st1" d="M106.9,37.9c0.1-1.5,0.2-2.9,0.3-4.3c0-0.5,0.2-0.6,0.6-0.6c0.5,0,0.5,0.3,0.4,0.6c-0.2,2.9-0.4,5.8-0.6,8.6
			c-0.3,4-3.9,7.3-8.1,7.6c-4.1,0.3-8.1-2.5-9.1-6.5c-0.2-0.8-0.3-1.7-0.3-2.6c0.2-2.7,0.4-5.5,0.6-8.2c0-0.4-0.1-0.8,0.6-0.7
			c0.7,0,0.5,0.5,0.5,0.8c-0.2,2.7-0.4,5.3-0.6,8c-0.2,3.8,2.4,7.3,6,8c3.8,0.8,7.6-1.2,8.9-4.8c0.3-0.8,0.4-1.6,0.5-2.5
			C106.8,40.2,106.8,39.1,106.9,37.9z"/>
		<path class="st2" d="M30.5,16.7c0.6,0.5,0.8,0.6,1.9,1.4c1.1,3.8,2.2,7.6,3.2,11.4c1.1,4.2,2.2,8.3,3.3,12.5
			c0.1,0.3,0.2,0.5,0.2,0.9c-0.4,0.3-0.9,0.6-1.4,1.1c-0.4-0.2-0.4-0.5-0.5-0.8c-1.4-5-2.7-10.1-4.1-15.2c-0.9-3.3-1.8-6.6-2.7-9.9
			C30.4,17.5,30.2,17.1,30.5,16.7z"/>
		<path class="st3" d="M35.8,45.3c-0.4,0.3-0.8,0.6-1.2,0.9c-0.5,0-0.4-0.5-0.5-0.8c-0.8-2.7-1.5-5.4-2.2-8.1
			c-1.6-5.8-3.1-11.6-4.7-17.5c-0.1-0.4-0.1-0.9-0.4-1.3c0-1.5,0-3,0-4.7c0,0,0.1,0,0.1,0.1c0,0,0,0,0,0c0,0,0,0,0,0c0,0,0,0,0.1,0
			c0.2,0.1,0.3,0.3,0.6,0.4c0.8,3.4,1.8,6.8,2.7,10.2c1.6,5.9,3.2,11.8,4.7,17.6C35.4,43.3,35.8,44.2,35.8,45.3z"/>
		<path class="st4" d="M77.2,36.7c0-4.2,0-8.3,0-12.5c0-0.4-0.1-0.7,0.5-0.7c0.5,0,0.6,0.1,0.6,0.6c0,2.5,0,5,0,7.5
			c0,0.6,0.1,0.8,0.8,0.8c2.2,0,4.5,0,6.7,0c0.3,0,0.4-0.1,0.4,0.5c0,0.8-0.1,0.6-0.5,0.6c-2.2,0-4.5,0-6.7,0
			c-0.7,0-0.8,0.2-0.8,0.8c0,5,0,9.9,0,14.9c0,0.3,0.2,0.8-0.5,0.8c-0.7,0-0.6-0.4-0.6-0.8C77.2,45,77.2,40.9,77.2,36.7z"/>
		<path class="st5" d="M35.5,20.4c0.7,0.6,1.5,1.1,2.3,1.7c0.6,2.8,1.4,5.5,2.1,8.3c0.8,3.1,1.8,6.4,2.6,9.5
			c0.1,0.3,0.2,0.2-0.2,0.5c-0.4,0.3-1,0.7-1.5,1.1c-0.5,0-0.3-0.4-0.4-0.7c-1-3.6-2-7.3-3-10.9c-0.7-2.8-1.5-5.5-2.2-8.3
			C35.3,21.3,34.8,20.6,35.5,20.4z"/>
		<path class="st6" d="M30.5,16.7c0,1.6,0.6,3,1,4.4c1.9,7.4,4,14.7,5.9,22.1c0.1,0.3,0.1,0.4,0.2,0.7c-0.4,0.3-0.7,0.5-1,0.8
			c-0.4-0.1-0.4-0.4-0.5-0.7c-1.2-4.5-2.4-9-3.6-13.4c-1.2-4.5-2.4-8.9-3.6-13.4c-0.1-0.3-0.2-0.7-0.3-1c0-0.2-0.3-0.6,0.2-0.6
			c0.1,0.1,0.3,0.2,0.4,0.3c0.1,0.1,0.2,0.2,0.4,0.3c0,0,0.1,0.1,0.2,0.2c0,0,0.1,0,0.1,0.1c0.1,0.1,0.2,0.1,0.3,0.2
			c0.1,0.1,0.1,0.1,0.2,0.1C30.4,16.6,30.5,16.7,30.5,16.7z"/>
		<path class="st7" d="M29,15.5c-0.3,0.6,0.1,1.1,0.3,1.7c1.4,5.2,2.8,10.5,4.2,15.7c1.1,3.9,2.1,7.8,3.2,11.7
			c-0.3,0.2-0.6,0.5-0.9,0.7c-0.6-1.2-0.7-2.3-1-3.5c-1.8-6.7-3.6-13.5-5.5-20.2c-0.5-2-1.1-4.1-1.7-6.2c-0.1-0.3-0.2-0.6,0-0.9
			c0.1,0.1,0.2,0.1,0.3,0.2c0.1,0.1,0.1,0.1,0.2,0.1C28.4,15.1,28.7,15.3,29,15.5z"/>
		<path class="st8" d="M26.9,18.6c0.6,0.5,0.6,1.3,0.8,1.9c2,7.5,4,15,6.1,22.5c0.3,0.9,0.5,1.8,0.7,2.8c0,0.2,0,0.3,0.2,0.4
			c-0.3,0.3-0.7,0.5-1,0.8c-0.6,0-0.5-0.5-0.6-0.9c-0.7-2.5-1.4-5-2-7.5c-1.3-4.7-2.5-9.4-3.8-14.1c-0.1-0.5-0.1-1-0.4-1.4
			C26.9,21.6,26.9,20.1,26.9,18.6z"/>
		<path class="st9" d="M26.9,23c0.6,0.5,0.6,1.3,0.8,2c1.5,5.3,2.8,10.5,4.3,15.8c0.5,1.8,0.9,3.5,1.4,5.3c0.1,0.3,0.1,0.6,0.4,0.8
			c-0.4,0.3-0.8,0.6-1.3,1c-0.4-0.2-0.4-0.5-0.5-0.8c-1.2-4.2-2.3-8.5-3.4-12.7c-0.6-2.2-1.3-4.4-1.6-6.6
			C26.9,26.1,26.9,24.6,26.9,23z"/>
		<path class="st10" d="M39.1,42.9c-0.6-1.2-0.7-2.3-1-3.5c-1.8-6.8-3.7-13.5-5.5-20.3c-0.1-0.3-0.5-0.6-0.2-1
			c0.2,0.1,0.5,0.4,0.7,0.5c0.1,0,0.1,0.1,0.2,0.1c0.1,0.1,0.2,0.2,0.3,0.2c0.1,0.1,0.2,0.2,0.3,0.2c0.7,1.6,1.1,3.3,1.5,5
			c1.5,5.8,3.1,11.5,4.7,17.2c0.1,0.2,0.1,0.3,0.1,0.5C39.9,42.3,39.5,42.5,39.1,42.9z"/>
		<path class="st11" d="M42.4,40.4c-0.7-2.5-1.3-4.9-2-7.4c-0.9-3.4-1.8-6.8-2.8-10.2c-0.1-0.3-0.2-0.5,0.1-0.7
			c0.7,0.6,1.4,1,2.2,1.7c0,0.9,0.3,1.7,0.5,2.5c1.1,4.1,2.2,8.2,3.3,12.3c0.1,0.2,0.1,0.3,0.1,0.6C43.4,39.6,43.4,39.7,42.4,40.4z"
			/>
		<path class="st12" d="M26.9,27.7c0.6,1.2,0.8,2.5,1.1,3.8c1.5,5.4,2.9,10.8,4.4,16.3c0,0.1,0,0,0,0.1c-0.2,0.2-0.2,0.1-0.3,0.3
			c-0.1,0.1-0.3,0.2-0.4,0.3c-0.1,0.1-0.3,0.2-0.4,0.3c-0.6,0-0.5-0.4-0.6-0.8c-0.8-3-1.6-6.1-2.5-9.1c-0.5-1.8-0.9-3.5-1.4-5.3
			C26.9,31.5,26.9,29.6,26.9,27.7z"/>
		<path class="st13" d="M40.2,42c-0.6-0.7-0.7-1.6-0.9-2.5C37.5,33,35.8,26.5,34,19.9c-0.1-0.3-0.2-0.5-0.2-0.7
			c0.3,0.3,0.6,0.4,0.9,0.7c0.2,0.2,0.4,0.4,0.8,0.6c-0.4,0.3-0.1,0.5,0,0.8c1.1,4.1,2.2,8.3,3.3,12.4c0.6,2.4,1.3,4.7,1.9,7.1
			c0.1,0.2,0.1,0.5,0.3,0.6c-0.1,0.1-0.2,0.2-0.4,0.3C40.5,41.8,40.4,41.9,40.2,42z"/>
		<path class="st14" d="M26.9,33.4c0.6,0.5,0.6,1.3,0.8,2c1.1,4.2,2.2,8.4,3.4,12.5c0.1,0.3,0,0.5,0.4,0.7c-0.5,0.4-1.1,0.8-1.6,1.2
			c-0.3-0.2-0.3-0.5-0.3-0.8c-0.9-3.1-1.7-6.3-2.5-9.4C26.9,37.6,26.9,35.5,26.9,33.4z"/>
		<path class="st15" d="M43.9,39.3c-0.3-0.5-0.4-1-0.5-1.5c-0.7-2.4-1.3-4.9-2-7.3c-0.5-1.9-1-3.8-1.5-5.8c-0.1-0.3-0.7-0.7,0-0.9
			c0.7,0.6,1.3,1,1.9,1.4c0.8,3.5,1.8,6.7,2.7,10.1c0.3,1,0.5,1.9,0.8,3C44.8,38.6,44.4,38.8,43.9,39.3z"/>
		<path class="st16" d="M133.4,41.2c0,2.7,0,5.3,0,8c0,0.4,0.1,0.7-0.5,0.7s-0.5-0.4-0.5-0.7c0-5.3,0-10.7,0-16.1
			c0-0.4-0.1-0.7,0.6-0.7c0.7,0,0.5,0.4,0.5,0.7C133.4,35.8,133.4,38.5,133.4,41.2z"/>
		<path class="st17" d="M45.4,38.1C45.4,38.1,45.4,38.2,45.4,38.1c-0.1,0.1-0.1,0.1-0.1,0.1l0,0c0,0,0,0,0,0l0,0c0,0,0,0,0,0
			c-0.4,0.2-0.4-0.6-0.5-0.9c-1-3.8-2-7.6-3.1-11.5c-0.1-0.3-0.3-0.5,0-0.8c0.6,0.5,1.1,0.8,1.8,1.3c0.9,2.8,1.6,5.6,2.4,8.5
			c0.2,0.8,0.4,1.5,0.7,2.4c-0.4,0.3-0.5,0.4-0.9,0.7C45.6,38,45.5,38,45.4,38.1C45.5,38.1,45.4,38.1,45.4,38.1z"/>
		<path class="st18" d="M46.5,37.3c-0.5-0.2-0.3-0.6-0.5-1c-0.9-3.1-1.7-6.3-2.6-9.4c0-0.2-0.1-0.3,0-0.5c0.3,0.3,0.7,0.5,1.1,0.8
			c0.4,0.3,0.7,0.5,1.1,0.9c0.6,2.9,1.4,5.4,2.2,8.2c-0.1,0.1-0.3,0.2-0.4,0.3C47.1,36.8,46.8,37.1,46.5,37.3z"/>
		<path class="st19" d="M26.9,39.7c0.5,0.8,0.7,1.7,0.9,2.6c0.7,2.5,1.3,5,2,7.5c-0.2,0.2-0.5,0.3-0.7,0.5c-0.1,0.1-0.3,0.2-0.4,0.3
			c-0.1,0.1-0.2,0.1-0.3,0.2c-0.5-0.7-0.5-1.4-0.7-2.2c-0.3-1.1-0.5-2.2-0.9-3.2C26.9,43.5,26.9,41.6,26.9,39.7z"/>
		<path class="st20" d="M48,36.2C47.9,36.2,47.9,36.2,48,36.2c-0.4,0.1-0.5-0.3-0.5-0.6c-0.6-2.3-1.2-4.5-1.8-6.8
			c-0.1-0.3-0.2-0.5,0-0.8c0.3,0.2,0.6,0.4,0.9,0.6c0.4,0.3,0.8,0.5,1.1,0.8c0.3,1.7,0.8,3.3,1.3,5c0.1,0.3,0.2,0.4,0.2,0.7
			c-0.2,0.2-0.3,0.3-0.5,0.4c-0.1,0.1-0.2,0.2-0.3,0.3c0,0-0.1,0.1-0.2,0.1c0,0,0,0,0,0S48.1,36.1,48,36.2C48,36.2,48,36.2,48,36.2z
			"/>
		<path class="st21" d="M14.5,28c0-1.2,0-2.4,0-3.6c0.6,0,0.5,0.5,0.6,0.8c0.6,2.1,1.1,4.2,1.7,6.3c0.4,1.3,0.7,2.5,1,3.8
			c0,1.2,0,2.3,0,3.5c-0.4,0.5-0.5,0-0.6-0.2c-0.2-0.6-0.3-1.3-0.5-1.8c0-0.1-0.1-0.2-0.1-0.2c-0.1-0.6-0.2-1.2-0.5-1.7
			c0-0.1-0.1-0.2-0.1-0.2C15.7,32.3,15,30.1,14.5,28z"/>
		<path class="st22" d="M17.8,38.8c0-1.3,0-2.5,0-3.8c-0.4-1.1-0.2-2.2-0.2-3.3c0-0.8,0-1.7,0-2.5c0.1-0.9,0-1.9,0-2.8
			c0-1.8,0-3.6,0-5.5c0-0.4,0-0.8,0.1-1.2c0-0.1,0.1-0.2,0.2-0.2c0,0.2,0,0.4,0,0.6c0,10.4,0,20.8,0,31.2c0,0.1,0,0.4,0,0.6
			c0,0.2,0,0.2-0.4,0.2c-0.2-0.2-0.3-0.4-0.3-0.7c-0.6-2.6-1.4-5.2-2-7.8c-0.2-0.8-0.5-1.6-0.6-2.4c0-0.7,0-1.4,0-2.1
			c0.5,0.1,0.5,0.5,0.6,0.9c0.9,3.1,1.7,6.1,2.5,9.2c0-0.8,0-1.6,0-2.3c0-0.7,0-1.5,0-2.2c0-0.8,0-1.6,0-2.4c0-0.9,0-1.7,0-2.6
			C17.6,39.4,17.5,39.1,17.8,38.8z"/>
		<path class="st23" d="M17.8,31.8c0,1.1,0,2.2,0,3.3c-0.7-0.8-0.7-1.9-0.9-2.8c-0.7-2.5-1.3-5-2-7.4c-0.1-0.2-0.1-0.4-0.3-0.4
			c0-1.1,0-2.3,0-3.5c0.5,0,0.5,0.4,0.6,0.7c0.7,2.9,1.5,5.8,2.3,8.7C17.6,30.8,17.5,31.3,17.8,31.8z"/>
		<path class="st24" d="M24,34.7c0,1,0,2.1,0,3.1c-0.5,0-0.6-0.4-0.7-0.8c-0.8-3.4-1.9-6.8-2.7-10.2c0-0.9,0-1.8,0-2.7
			c0.5-0.3,0.6,0.2,0.7,0.4c0.2,0.7,0.4,1.4,0.6,2.1C22.6,29.4,23.4,32,24,34.7z"/>
		<path class="st3" d="M17.8,47.1c0,1,0,1.9,0,3c-0.4-0.2-0.4-0.5-0.5-0.8c-0.9-3.2-1.7-6.3-2.5-9.5c-0.1-0.2-0.2-0.4-0.3-0.6
			c0-0.9,0-1.9,0-2.8c0.6,0,0.5,0.5,0.6,0.8c0.7,2.5,1.4,5.1,2.1,7.7C17.4,45.6,17.5,46.4,17.8,47.1z"/>
		<path class="st25" d="M24,44.8c0,1,0,2,0,3c-0.6-0.1-0.6-0.7-0.7-1.1c-0.8-3.1-1.7-6.2-2.5-9.3c0-0.2-0.1-0.3-0.1-0.5
			c0-0.9,0-1.8,0-2.7c0.6-0.3,0.7,0.3,0.7,0.6c0.3,1.3,0.7,2.7,1,4C23,40.8,23.6,42.8,24,44.8z"/>
		<path class="st26" d="M24,40c0,0.9,0,1.8,0,2.6c-0.5,0-0.6-0.4-0.7-0.7c-0.9-3.4-1.9-6.8-2.7-10.3c0-0.8,0-1.6,0-2.4
			c0.6-0.3,0.6,0.3,0.7,0.5c0.4,1.4,0.8,2.7,1.1,4.1C23,35.9,23.7,37.9,24,40z"/>
		<path class="st21" d="M24,34.7c-0.7-0.8-0.7-1.9-1-2.8c-0.7-2.4-1.3-4.8-1.9-7.2c-0.1-0.3-0.1-0.5-0.4-0.7c-0.3-0.9,0-1.8-0.1-2.6
			c0.1-0.3,0.3-0.2,0.4,0c0.3,0.4,0.4,0.8,0.5,1.3c0.8,3.1,1.7,6.2,2.4,9.3C24,32.9,24,33.8,24,34.7z"/>
		<path class="st27" d="M20.8,37c0.5,0.4,0.4,1,0.6,1.5c0.8,2.8,1.5,5.6,2.2,8.4c0.1,0.3,0.1,0.7,0.4,0.8c0,1,0,2,0,3
			c-0.4,0-0.4-0.3-0.5-0.5c-0.9-3.1-1.7-6.2-2.5-9.2c-0.1-0.4-0.3-0.8-0.4-1.3C20.8,38.8,20.5,37.9,20.8,37z"/>
		<path class="st28" d="M20.8,37c0,0.9,0,1.9,0,2.8c0.3,0.6,0.2,1.3,0.2,2c0,0.9,0,1.8,0,2.7c-0.3,2.3,0.6,4.3,1.1,6.4
			c0.1,0.4,0.3,0.8,0,1.2c-1.6,0.1-1.4,0.2-1.4-1.3c0-12,0-24.1,0-36.1c0-0.3-0.1-0.6,0.1-0.9c0.1,0.1,0.2,0.2,0.2,0.4
			c0.1,0.9,0,1.7,0,2.5c0,0.8,0,1.5,0,2.3c-0.1,0.7,0.2,1.5-0.2,2.1c0,0.9,0,1.9,0,2.8c0,1,0,2,0,3c0.1,0.7,0.4,1.4,0,2.1
			c0,0.9,0,1.8,0,2.6c0,0.8,0.5,1.5,0,2.3C20.8,35.1,20.8,36.1,20.8,37z"/>
		<path class="st8" d="M11.6,32.3c0,2.7,0,5.4,0,8c0,3.7,0,7.5,0,11.2c0,0.3,0,0.4,0,0.7c0,0-0.2,0-0.6,0c-0.3-0.2-0.4-0.6-0.5-0.9
			c-0.7-2.5-1.3-5-2-7.4c-0.1-0.5-0.1-0.9-0.3-1.3c0-0.7,0-1.3,0-2c0.4,0,0.5,0.3,0.6,0.6c0.9,3.1,1.7,6.3,2.5,9.4
			c0-0.4,0-0.8,0-1.2c0-0.6,0-1.2,0-1.7c0.1-0.8,0-1.5,0-2.3c0.1-0.8,0-1.5,0-2.3c0-0.9,0-1.8,0-2.8c0.1-0.7,0-1.4,0-2.1
			c0.1-0.6,0-1.2,0-1.8c0.1-0.7,0-1.3,0-1.9c0.1-0.6-0.1-1.3,0.1-1.9C11.4,32.3,11.5,32.3,11.6,32.3z"/>
		<path class="st5" d="M11.5,40.2c0,0.9,0,1.9,0,2.8c-0.5-0.1-0.6-0.5-0.7-0.9c-0.7-3-1.6-6-2.4-9c-0.1-0.4-0.1-0.8-0.2-1.1
			c0-0.9,0-1.8,0-2.6c0.5,0,0.5,0.4,0.6,0.7c0.9,3.2,1.8,6.3,2.5,9.5C11.4,39.8,11.4,40,11.5,40.2z"/>
		<path class="st29" d="M20.8,16.8c0-0.9,0-1.8,0-2.6c0.6,0,0.6,0.5,0.7,0.9c0.9,3.3,1.9,6.6,2.6,10c0,0.9,0,1.8,0,2.6
			c-0.6-0.1-0.6-0.7-0.7-1.1C22.5,23.3,21.6,20.1,20.8,16.8z"/>
		<path class="st29" d="M17.8,31.8c-0.8-0.4-0.5-1.3-0.7-1.9c-0.6-1.7-1-3.5-1.5-5.3c-0.3-1-0.6-2-0.7-3c0-0.3-0.1-0.5-0.3-0.6
			c-0.1-0.4-0.1-0.9,0-1.3c0.1,0,0.2,0,0.3,0c0.1,0,0.1,0,0.2,0s0.1,0,0.2,0c0.4,1.1,0.7,2.1,1,3.2c0.5,2.1,1.3,4.3,1.6,6.4
			C17.8,30.1,17.8,30.9,17.8,31.8z"/>
		<path class="st26" d="M17.8,42.3c0,0.8,0,1.7,0,2.5c-0.5,0-0.6-0.4-0.6-0.7c-0.6-2.7-1.4-5.3-2.1-7.9c-0.2-0.8-0.3-1.6-0.6-2.4
			c0-0.8,0-1.5,0-2.3c0.6,0,0.5,0.5,0.6,0.8c0.9,3.3,1.9,6.5,2.6,9.8C17.7,42.2,17.7,42.2,17.8,42.3z"/>
		<path class="st30" d="M17.8,42.3c-0.7-1.3-0.8-2.7-1.3-4.1c-0.6-2.1-1.1-4.2-1.7-6.3c-0.1-0.2-0.1-0.4-0.3-0.4c0-0.9,0-1.9,0-2.8
			c0.4,0.1,0.4,0.5,0.5,0.8c0.4,1.7,0.9,3.4,1.3,5.1l0,0c0.2,0.6,0.3,1.2,0.5,1.8l0,0c0.4,1.1,0.5,2.2,1,3.3
			C17.8,40.5,17.8,41.4,17.8,42.3z"/>
		<path class="st31" d="M24,25c-0.6-1.2-0.8-2.5-1.1-3.7c-0.6-2.1-1.2-4.3-1.8-6.4c-0.1-0.3-0.1-0.6-0.4-0.7c0-0.1,0-0.2,0-0.3
			c0.3-0.1,0.6-0.1,0.9,0c0.5,0.2,0.6,0.7,0.6,1.1c0.4,2,1.1,3.9,1.5,5.8c0.1,0.4,0.1,0.9,0.3,1.3C24,23,24,24,24,25z"/>
		<path class="st32" d="M49.1,35.3c-0.2-0.1-0.2-0.2-0.2-0.4c-0.4-1.7-0.9-3.3-1.3-5c-0.1-0.2-0.2-0.4,0.2-0.4
			c0.3,0.2,0.6,0.5,0.9,0.7c0.3,0.2,0.5,0.4,0.8,0.6c0.5,1.2,0.6,2.3,1.1,3.4c0,0-0.1,0,0,0C50.1,34.6,49.9,34.8,49.1,35.3z"/>
		<path class="st33" d="M14.5,33.8c0.5,1.1,0.8,2.3,1.1,3.5c0.5,2,1.1,4,1.6,6c0.1,0.5,0,1.1,0.5,1.5c0,0.8,0,1.5,0,2.3
			c-0.7-0.5-0.5-1.3-0.7-1.9c-0.8-2.8-1.5-5.5-2.2-8.3c-0.1-0.2-0.1-0.3-0.3-0.4C14.5,35.5,14.5,34.6,14.5,33.8z"/>
		<path class="st34" d="M20.8,21.3c0-0.7,0-1.4,0-2.1c0.6,0,0.6,0.5,0.8,0.9c0.9,3.3,1.9,6.5,2.5,9.8c0,0.7,0,1.4,0,2.1
			c-0.6-1.3-0.9-2.8-1.3-4.2c-0.5-1.8-0.9-3.5-1.4-5.3C21.3,22,21.1,21.6,20.8,21.3z"/>
		<path class="st35" d="M8.2,31.9c0.5,0.8,0.6,1.7,0.8,2.6c0.6,2.3,1.3,4.6,1.9,6.9c0.1,0.5,0.1,1.1,0.6,1.5c0,0.8,0,1.5,0,2.3
			c-0.6,0-0.6-0.5-0.6-0.9C10,41,8.9,37.7,8.2,34.3C8.2,33.5,8.2,32.7,8.2,31.9z"/>
		<path class="st36" d="M11.5,49.4c0,0.6,0,1.2,0,1.8c-0.1,0-0.1,0-0.2,0c-0.2-0.7-0.4-1.4-0.6-2.1C10,46.4,9.3,43.7,8.5,41
			c-0.1-0.2-0.1-0.4-0.3-0.5c0-0.8,0-1.5,0-2.3c0.5,0.1,0.6,0.5,0.7,0.9c0.7,2.9,1.6,5.8,2.3,8.8C11.4,48.4,11.3,48.9,11.5,49.4z"/>
		<path class="st5" d="M2.1,34.8c0.1,0,0.2,0,0.3,0c0.6,1,0.7,2.1,1,3.1c0.6,2,1.1,4,1.6,6c0.1,0.5,0.1,1.1,0.3,1.6
			c0,0.8,0,1.5,0,2.3c-0.5-0.1-0.5-0.6-0.6-0.9C3.8,43.4,2.9,40,2,36.6C2,36,1.9,35.4,2.1,34.8z"/>
		<path class="st26" d="M8.2,34.3C8.7,35,8.8,35.9,9,36.7c0.8,2.7,1.4,5.4,2.2,8.1c0.1,0.2,0.1,0.3,0.3,0.4c0,0.8,0,1.5,0,2.3
			c-0.7-0.3-0.6-1-0.8-1.6c-0.6-2.2-1.2-4.3-1.8-6.5c-0.3-1-0.6-2-0.7-3.1C8.2,35.7,8.2,35,8.2,34.3z"/>
		<path class="st37" d="M11.5,40.2c-0.4-0.4-0.4-0.9-0.5-1.3c-0.8-2.8-1.4-5.8-2.4-8.6c-0.1-0.3,0.1-0.8-0.4-0.9c0-0.7,0-1.4,0-2.1
			c0.6,0.2,0.6,0.8,0.8,1.3c0.9,3.2,1.8,6.4,2.5,9.6C11.5,38.7,11.5,39.5,11.5,40.2z"/>
		<path class="st38" d="M20.8,44.6c0-0.9,0-1.9,0-2.8c0.4,0,0.5,0.4,0.5,0.6c0.8,3,1.6,5.9,2.4,8.9c0.1,0.3,0.1,0.5,0,0.8
			c-0.3,0-0.5,0-0.8,0c-0.3-0.3-0.4-0.7-0.5-1C21.9,49,21.3,46.8,20.8,44.6z"/>
		<path class="st39" d="M23.8,52.2c-0.7-2.6-1.4-5.3-2.2-7.9c-0.2-0.8-0.3-1.7-0.8-2.5c0-0.7,0-1.3,0-2c0.4,0.2,0.4,0.5,0.4,0.8
			c0.7,3,1.5,5.9,2.4,8.8c0.1,0.4,0,0.9,0.4,1.2c0,0.4,0,0.8,0,1.2C24.1,52.1,24,52.2,23.8,52.2z"/>
		<path class="st34" d="M5.4,45.5c-0.6-0.6-0.5-1.3-0.7-2c-0.6-2.4-1.3-4.8-1.9-7.2c-0.1-0.5-0.2-1-0.3-1.4c0.2,0,0.4,0,0.7,0
			c0.6,0.9,0.7,2,0.9,3c0.5,1.8,1.1,3.5,1.3,5.3C5.4,43.9,5.4,44.7,5.4,45.5z"/>
		<path class="st40" d="M26.9,45.5c0.6,0.2,0.5,0.8,0.6,1.3c0.4,1.4,0.8,2.7,1,4.2c-0.5,0.4-1.1,0.9-1.6,1.2c0-0.7,0-1.2,0-1.8
			C26.9,48.7,26.9,47.1,26.9,45.5z"/>
		<path class="st15" d="M24,29.8c-0.6-1.2-0.7-2.5-1.1-3.8c-0.6-2.1-1.1-4.1-1.7-6.2c-0.1-0.3-0.2-0.5-0.5-0.6c0-0.8,0-1.5,0-2.3
			c0.5,0.5,0.5,1.1,0.6,1.6c0.8,2.8,1.5,5.6,2.2,8.3c0.1,0.3,0.1,0.6,0.4,0.9C24,28.4,24,29.1,24,29.8z"/>
		<path class="st41" d="M20.8,29.1c0-0.7,0-1.4,0-2.1c0.4,0.5,0.5,1.2,0.6,1.8c0.7,2.8,1.6,5.5,2.2,8.4c0.1,0.3,0.2,0.6,0.5,0.8
			c0,0.7,0,1.4,0,2.1c-0.2-0.1-0.3-0.3-0.3-0.5c-0.7-2.8-1.4-5.6-2.2-8.4C21.4,30.5,21.4,29.7,20.8,29.1z"/>
		<path class="st26" d="M5.4,49.6c0,0.8,0,1.5,0,2.3c-0.4,0-0.4-0.4-0.4-0.7c-1-3.6-2-7.3-2.9-10.9c0-0.5,0-1.1,0-1.7
			c0.6-0.2,0.5,0.4,0.6,0.7c0.6,2,1.1,4.1,1.7,6.1C4.7,46.8,5.1,48.1,5.4,49.6z"/>
		<path class="st33" d="M20.8,34.1c0-0.8,0-1.5,0-2.3c0.7,1.9,1.1,3.8,1.6,5.7c0.4,1.5,0.8,3,1.2,4.5c0.1,0.3,0.2,0.5,0.4,0.7
			c0,0.7,0,1.4,0,2.1c-0.6-0.8-0.6-1.9-0.9-2.8c-0.7-2.4-1.3-4.8-1.9-7.2C21.2,34.5,21.1,34.2,20.8,34.1z"/>
		<path class="st35" d="M5.4,49.6c-0.7-1.3-0.9-2.9-1.3-4.3C3.5,43.2,3,41.1,2.4,39c0-0.2-0.2-0.3-0.3-0.5c-0.2-0.6-0.2-1.2,0-1.8
			c0.7,1.6,1,3.2,1.4,4.9C4,43.3,4.5,45.1,5,46.9c0.1,0.3,0.1,0.7,0.4,0.9C5.4,48.3,5.4,49,5.4,49.6z"/>
		<path class="st15" d="M11.5,38.1c-0.4-0.4-0.5-1-0.6-1.6c-0.8-2.7-1.5-5.5-2.2-8.3c-0.1-0.4-0.2-0.7-0.5-1c0-0.1,0-0.3,0-0.4
			c0-0.2,0-0.3,0.2-0.3c0.1,0,0.2,0,0.4,0c0.4,0.6,0.5,1.3,0.7,2c0.6,2.6,1.5,5.1,2,7.7C11.5,36.8,11.5,37.5,11.5,38.1z"/>
		<path class="st42" d="M17.1,52.2c-0.2,0-0.4,0-0.7,0c-0.4-0.4-0.5-0.9-0.6-1.3c-0.5-1.8-1-3.7-1.4-5.5c0-0.8,0-1.5,0-2.3
			c0.4,0,0.4,0.3,0.5,0.6c0.5,1.8,1,3.5,1.5,5.3c0.2,0.9,0.5,1.8,0.7,2.8C17.2,51.8,17.3,52,17.1,52.2z"/>
		<path class="st42" d="M3.7,52c-0.4,0-0.9,0-1.3,0c-0.5,0-0.4,0-0.4-0.3C1.9,49.8,2,48,2,46.1c0-0.2,0.1-0.3,0.3-0.1
			c0.2,0.2,0.3,0.4,0.3,0.7c0.4,1.5,0.9,3.1,1.2,4.6C3.9,51.5,4,51.8,3.7,52z"/>
		<path class="st33" d="M8.2,36.4C9,38,9.2,39.8,9.7,41.5c0.6,2,0.9,4.1,1.8,6.1c0,0.6,0,1.2,0,1.8c-0.4-0.6-0.5-1.4-0.6-2.1
			c-0.7-2.8-1.6-5.5-2.2-8.3c-0.1-0.3-0.3-0.5-0.4-0.8C8.2,37.6,8.2,37,8.2,36.4z"/>
		<path class="st43" d="M50.5,34.3c-0.2,0-0.3,0.1-0.4-0.1c-0.2-1.1-0.8-2.1-0.8-3.3c0.1,0.1,0.3,0.2,0.4,0.3c0,0,0,0,0,0
			c0,0,0,0,0.1,0c0.1,0,0.1,0.1,0.2,0.1c0.1,0.1,0.2,0.2,0.3,0.2c0.3,0.2,0.5,0.4,0.8,0.6c0.2,0.2,0.6,0.4,0.8,0.6
			c0.2,0.1,0.2,0.1,0.3,0.2c0,0,0,0,0,0c0,0,0,0,0,0c0,0,0,0,0,0c0,0,0,0-0.1,0c0,0,0,0-0.1,0.1c0,0,0,0,0,0c0,0,0,0,0,0
			c0,0-0.1,0.1-0.2,0.2c-0.1,0.1-0.2,0.1-0.3,0.2C51.3,33.7,50.9,34,50.5,34.3z"/>
		<path class="st44" d="M20.8,44.6c0.7,1,0.7,2.2,1,3.3c0.4,1.4,0.7,2.8,1.1,4.2c-0.3,0-0.5,0-0.8,0c-0.1-1.3-0.5-2.5-1-3.8
			C20.7,47.2,20.8,45.9,20.8,44.6z"/>
		<path class="st29" d="M11.5,36.2c-0.7-1.3-0.8-2.7-1.2-4C9.8,30.6,9.4,29,9,27.4c-0.1-0.3-0.1-0.6-0.1-0.9c0.2,0,0.3,0,0.5,0
			c0.7,1.4,0.8,2.9,1.3,4.4c0.4,1.1,0.6,2.2,0.8,3.3C11.5,34.9,11.5,35.6,11.5,36.2z"/>
		<path class="st45" d="M2.1,40.3c0.6,1.2,0.7,2.5,1.1,3.8c0.7,2.6,1.4,5.2,2.1,7.8c0,0,0,0.1,0,0.1c-0.1,0-0.1,0-0.1,0
			c-0.2,0-0.2,0-0.3,0c-0.6-0.8-0.6-1.7-0.9-2.6C3.3,47,2.7,44.5,2,42C2.1,41.5,1.9,40.9,2.1,40.3z"/>
		<path class="st31" d="M11.5,34.2c-0.2-0.1-0.3-0.3-0.3-0.5c-0.6-2.1-1.1-4.3-1.7-6.4c-0.1-0.3-0.1-0.5-0.1-0.8c0.2,0,0.4,0,0.7,0
			c0.4,0.6,0.5,1.3,0.7,2c0.4,1.1,0.6,2.2,0.9,3.4c0,0.1,0.1,0.3,0,0.4C11.5,32.9,11.5,33.6,11.5,34.2z"/>
		<path class="st39" d="M17.1,52.2c-0.8-2.8-1.5-5.7-2.3-8.5c-0.1-0.3-0.1-0.6-0.4-0.7c0-0.5,0-1.1,0-1.7c0.6,1.1,0.7,2.4,1.2,3.6
			c0.5,1.5,0.7,3.1,1.3,4.6c0.3,0.8,0.4,1.7,0.5,2.6C17.4,52.2,17.3,52.2,17.1,52.2z"/>
		<path class="st46" d="M14.5,45.3c0.4,0.3,0.4,0.8,0.5,1.2c0.5,1.9,1,3.8,1.5,5.7c-0.2,0-0.4,0-0.7,0c-0.4-0.2-0.4-0.5-0.5-0.9
			c-0.3-1.1-0.6-2.1-0.8-3.2C14.5,47.2,14.5,46.2,14.5,45.3z"/>
		<path class="st29" d="M5.4,43.1c-0.9-2.8-1.6-5.6-2.3-8.4c0.2,0,0.3,0,0.5,0C3.8,35,4,35.3,4,35.6c0.4,1.9,1.1,3.7,1.3,5.6
			C5.4,41.8,5.4,42.5,5.4,43.1z"/>
		<path class="st47" d="M24,22c-0.4-0.5-0.5-1.1-0.6-1.7c-0.3-1.3-0.6-2.6-1.1-3.8c-0.3-0.9,1.4,10.3-0.8-2.7c0.2,0,0.4,0,0.7,0
			c0.5,0.5,0.5,1.1,0.7,1.7c0.4,1.5,0.8,2.9,1.1,4.4C24,20.6,24,21.3,24,22z"/>
		<path class="st48" d="M3.7,52c-0.4-2.1-1-4.1-1.6-6.1c-0.3-0.5-0.1-1.1-0.1-1.7c0.6-0.3,0.6,0.3,0.6,0.6c0.5,1.8,1,3.5,1.4,5.3
			c0.1,0.4,0.2,0.7,0.3,1.1c0.1,0.3,0.2,0.6,0,0.9C4.2,52,4,52,3.7,52z"/>
		<path class="st42" d="M10.5,52.2c-0.2,0-0.3,0-0.5,0c-0.3-0.1-0.4-0.5-0.5-0.7c-0.5-1.8-1.1-3.5-1.3-5.3c0-0.7,0-1.4,0-2.1
			c0.4,0,0.4,0.3,0.5,0.6c0.6,2.3,1.2,4.5,1.8,6.8C10.6,51.7,10.7,51.9,10.5,52.2z"/>
		<path class="st49" d="M133.4,25.3c0,0.4,0,0.8,0,1.2c0,0.4,0,0.6-0.5,0.6c-0.4,0-0.6-0.1-0.6-0.5c0-0.9,0-1.7,0-2.5
			c0-0.5,0.2-0.5,0.6-0.5c0.4,0,0.6,0.1,0.5,0.5C133.3,24.5,133.4,24.9,133.4,25.3z"/>
		<path class="st50" d="M24,19.9c-0.6-0.9-0.6-2-0.9-2.9c-0.4-1-0.6-2.1-0.9-3.1c0.2,0,0.4,0,0.7,0c0.7,0.9,0.7,1.9,1,2.9
			c0.1,0.2,0,0.5,0.2,0.7C24,18.3,24,19.1,24,19.9z"/>
		<path class="st51" d="M11.5,31.9c-0.6-1.8-1.1-3.6-1.5-5.4c0.2,0,0.4,0,0.7,0c0.5,0.9,0.7,1.9,0.9,2.8
			C11.5,30.2,11.7,31.1,11.5,31.9z"/>
		<path class="st28" d="M14.5,48.1c0.6,0.6,0.5,1.5,0.8,2.2c0.2,0.6,0.4,1.2,0.5,1.9c-1.6,0-1.3,0.2-1.3-1.2
			C14.4,50,14.5,49,14.5,48.1z"/>
		<path class="st31" d="M5.4,41.2c-0.7-2.1-1.2-4.3-1.8-6.4c0.2,0,0.3,0,0.5,0c0.3,0.3,0.4,0.6,0.5,1c0.3,1.1,0.6,2.3,0.8,3.4
			C5.4,39.8,5.4,40.5,5.4,41.2z"/>
		<path class="st46" d="M8.2,46.1c0.7,1.8,1,3.8,1.6,5.6C9.9,51.9,10,52,10,52.2c-0.2,0-0.4,0-0.7,0c-0.5-0.9-0.6-1.9-0.9-2.9
			c-0.1-0.3-0.1-0.6-0.2-0.9C8.2,47.7,8.2,46.9,8.2,46.1z"/>
		<path class="st28" d="M8.2,48.4c0.5,0.3,0.4,0.9,0.6,1.4c0.2,0.8,0.6,1.5,0.6,2.4c-1.2,0.1-1.2,0.1-1.2-1
			C8.2,50.2,8.2,49.3,8.2,48.4z"/>
		<path class="st52" d="M2.1,44.5c0,0.6,0,1.2,0,1.8c0,1.9,0,3.8,0,5.8C2,51.8,2,51.6,2,51.4c0-5.2,0-10.5,0-15.7
			c0-0.2-0.1-0.4,0.1-0.6c0,0.6,0,1.3,0,1.9c0,0.6,0,1.2,0,1.8c0,0.6,0,1.2,0,1.8c0,0.6,0,1.2,0,1.8c0.2,0.3,0.1,0.7,0.2,1
			C2.3,43.8,2.4,44.2,2.1,44.5z"/>
		<path class="st3" d="M2.1,43.2c0-0.3,0-0.7,0-1c0.4,0.2,0.3,0.7,0.4,1c0.8,2.9,1.6,5.9,2.3,8.9c-0.1,0-0.1,0-0.2,0
			c-0.3-0.2-0.3-0.5-0.4-0.8C3.6,48.6,2.9,45.8,2.1,43.2z"/>
		<path class="st53" d="M24,17.4c-0.5-0.7-0.5-1.5-0.8-2.3c-0.2-0.4-0.2-0.9-0.4-1.3c0.2,0,0.5,0,0.6,0c0.4,0,0.5-0.1,0.6,0.1
			c0,0.1,0,0.5,0,0.9C24.1,15.7,24.1,16.6,24,17.4z"/>
		<path class="st54" d="M2.1,43.2c0.6,0.9,0.6,1.9,0.9,2.9c0.6,2,1,4,1.7,6c-0.1,0-0.2,0-0.3,0c-0.7-2.5-1.3-4.9-2-7.3
			c-0.1-0.2-0.1-0.4-0.3-0.5C2.1,43.8,2.1,43.5,2.1,43.2z"/>
		<path class="st9" d="M10.5,52.2c-0.7-2.5-1.3-5-2-7.5c-0.1-0.3-0.2-0.5-0.3-0.8c0-0.2,0-0.4,0-0.7c0.2,0,0.3,0.1,0.4,0.3
			c0.7,2.7,1.4,5.3,2.1,8c0.1,0.2,0.1,0.4-0.1,0.5C10.6,52.2,10.6,52.2,10.5,52.2z"/>
		<path class="st51" d="M5.4,39.2c-0.6-1.4-0.8-3-1.3-4.4c0.2,0,0.4,0,0.7,0c0.5,0.6,0.4,1.4,0.6,2.1C5.4,37.7,5.4,38.4,5.4,39.2z"
			/>
		<path class="st9" d="M10.7,52.2c-0.2-1.5-0.7-2.9-1.1-4.4c-0.3-1.3-0.7-2.6-1.1-4c-0.1-0.2-0.1-0.4-0.3-0.5c0-0.3,0-0.5,0-0.8
			C8.8,43.2,8.8,44,9,44.8c0.7,2.5,1.3,4.9,2,7.4C10.9,52.2,10.8,52.2,10.7,52.2z"/>
		<path class="st55" d="M16.3,34.6c-0.5-1.1-0.7-2.2-1-3.3c-0.3-0.9-0.4-1.8-0.8-2.6c0-0.2,0-0.4,0-0.7c0.6,0.6,0.6,1.4,0.8,2.2
			C15.6,31.6,16.2,33,16.3,34.6z"/>
		<path class="st56" d="M11.5,29.1c-0.4-0.8-0.6-1.6-0.8-2.5c0,0,0,0,0,0c0.1,0,0.3,0,0.4,0c0.1,0,0.1,0,0.2,0c0.1,0,0.1,0,0.2,0
			c0,0,0,0,0,0C11.6,27.4,11.7,28.2,11.5,29.1C11.5,29.1,11.5,29.1,11.5,29.1z"/>
		<path class="st57" d="M5.4,36.9c-0.4-0.6-0.6-1.4-0.6-2.1c0.6,0.1,0.7,0,0.7,0.5C5.4,35.8,5.4,36.3,5.4,36.9z"/>
		<path class="st5" d="M11.5,29.1c0-0.9,0-1.8,0-2.6c0,0,0.1,0,0.1,0c0.1,0,0.1,0,0.1,0.1c0,0.2,0,0.7,0,0.9c0,1.6,0,3.2,0,4.8
			c0,0-0.1,0-0.1,0c0-0.1,0-0.2,0-0.3C11.5,31,11.5,30.1,11.5,29.1z"/>
		<path class="st58" d="M15.2,19.6c-0.2,0-0.4,0-0.6,0c0.6,0,1.2,0,1.8,0c0.4,0,0.7,0,1.1,0c0.2,0,0.4,0,0.5,0l-0.1,0.1
			c-0.6,0.4-1.3,0.1-1.9,0.1C15.6,19.8,15.4,19.8,15.2,19.6z"/>
		<path d="M128.7,49.1c0-8.2,0-16.5,0-24.7c0-0.1,0-0.3,0-0.4c0-0.3-0.1-0.4-0.4-0.4c-0.5,0-0.7,0.1-0.7,0.7c0,3.9,0,7.7,0,11.6
			c0,0.3,0.1,0.5-0.1,0.8c-4-5.8-10.7-4.9-13.9-1.6c-3.6,3.6-3.3,9.5,0.5,12.8c3.5,3,9.8,3.2,13.5-2.3c0,1.3,0,2.4,0,3.5
			c0,0.3-0.3,0.9,0.5,0.9S128.7,49.4,128.7,49.1z M119.8,48.8c-4.3-0.1-7.7-3.7-7.6-7.9c0.1-4.2,3.8-7.6,7.9-7.5
			c4.3,0.1,7.7,3.6,7.6,7.8C127.5,45.5,124,49,119.8,48.8z"/>
		<path d="M145.5,32.4c-4.9,0-8.8,3.9-8.8,8.7c0,4.9,3.9,8.8,8.8,8.8c4.8,0,8.8-3.9,8.8-8.6C154.4,36.3,150.5,32.4,145.5,32.4z
			 M145.9,48.8c-4,0.3-7.7-3-8-7.1c-0.3-4.2,3-7.9,7.4-8.2c4.1-0.3,7.7,3,8,7.4C153.6,44.9,150.2,48.5,145.9,48.8z"/>
		<path class="st55" d="M17.8,39.7c-0.7-1-0.8-2.2-1-3.3c0.5,0.5,0.4,1.3,0.6,1.9c0.1,0.2,0.1,0.5,0.3,0.6
			C17.8,39.1,17.8,39.4,17.8,39.7z"/>
		<path class="st55" d="M16.8,36.4c-0.4-0.5-0.5-1.2-0.5-1.8C16.8,35.1,16.8,35.7,16.8,36.4z"/>
		<path class="st47" d="M15.8,19.6c0.6,0,1.3,0,2,0c0,2.3,0,4.6,0,6.9c-0.5,0-0.5-0.4-0.6-0.7c-0.5-1.8-0.9-3.5-1.4-5.3
			C15.7,20.2,15.6,19.9,15.8,19.6z"/>
		<path class="st18" d="M15.8,19.6c0.3,1.7,0.9,3.4,1.3,5.1c0.2,0.6,0,1.3,0.6,1.8c0,0.9,0,1.9,0,2.8c-0.4-0.5-0.4-1.2-0.6-1.9
			c-0.7-2.4-1.3-4.8-2-7.2c-0.1-0.2,0-0.4,0-0.7C15.4,19.6,15.6,19.6,15.8,19.6z"/>
	</g>
</g>
</svg>
